# xmcd
#
# Track frame offsets:
#	150
#	19695
#	20353
#
# Disc length: 454 seconds
#
# Revision: 0
# Processed by: cddbd v1.4PL0 Copyright (c) Steve Scherf et al.
# Submitted via: audiograbber 1.81.02
#
DISCID=1601c403
DTITLE=T-Bone - testmCD
DYEAR=1900
DGENRE=
TTITLE0=erstes Leid
TTITLE1=zweite Scheiﬂe
TTITLE2=Nummer drei ist ein Ei
EXTD=
EXTT0=
EXTT1=
EXTT2=
PLAYORDER=
